<?xml version="1.0" encoding="utf-8" ?>
<svg width="30px" height="30px" xmlns="http://www.w3.org/2000/svg" xmlns:xlink="http://www.w3.org/1999/xlink" width="1024" height="1024">
	<path fill="#262122" d="M85.8727 943.45C97.2612 926.512 108.918 909.556 119.066 891.836C129.99 872.759 139.405 852.76 148.618 832.812Q152.603 824.248 156.4 815.598Q160.196 806.948 163.801 798.217Q167.405 789.486 170.817 780.677Q174.229 771.869 177.447 762.988Q180.664 754.107 183.685 745.157Q186.706 736.207 189.53 727.192Q192.353 718.178 194.978 709.104Q197.603 700.03 200.027 690.9Q202.451 681.77 204.674 672.59Q206.897 663.409 208.917 654.181Q210.938 644.954 212.755 635.684Q214.572 626.414 216.184 617.107Q217.797 607.799 219.204 598.459Q220.611 589.118 221.813 579.749Q223.014 570.379 224.01 560.986Q225.005 551.592 225.793 542.179Q228.94 507.995 231.111 473.736C232.561 450.487 233.622 427.238 236.161 404.069C242.361 347.491 256.213 288.76 282.695 238.055C319.283 167.999 376.372 115.763 452.331 92.0587Q455.459 91.0582 458.612 90.1348Q461.764 89.2115 464.938 88.366Q468.112 87.5205 471.305 86.7532Q474.499 85.986 477.711 85.2975Q480.922 84.609 484.15 83.9997Q487.377 83.3904 490.619 82.8607Q493.86 82.3309 497.114 81.881Q500.368 81.4311 503.631 81.0613Q506.895 80.6915 510.167 80.4021Q513.439 80.1127 516.717 79.9038Q519.995 79.6949 523.277 79.5667Q526.559 79.4385 529.843 79.391Q533.127 79.3435 536.412 79.3768Q539.696 79.41 542.979 79.5241Q546.261 79.6381 549.54 79.8328Q552.819 80.0275 556.092 80.3027Q559.365 80.578 562.63 80.9336Q565.895 81.2893 569.151 81.7251Q572.407 82.1609 575.65 82.6766Q578.894 83.1924 582.124 83.7877Q585.355 84.383 588.569 85.0576Q591.784 85.7322 594.981 86.4856Q598.178 87.239 601.355 88.0708Q604.533 88.9026 607.689 89.8122Q610.845 90.7219 613.978 91.7089Q617.11 92.6959 620.218 93.7596Q623.326 94.8233 626.406 95.9631Q629.487 97.1029 632.538 98.3181Q635.59 99.5332 638.61 100.823Q641.631 102.113 644.619 103.477Q647.607 104.84 650.561 106.277Q653.515 107.714 656.432 109.223Q659.429 110.811 662.386 112.473Q665.343 114.134 668.259 115.868Q671.174 117.602 674.046 119.407Q676.917 121.213 679.744 123.088Q682.57 124.963 685.349 126.908Q688.129 128.853 690.859 130.865Q693.589 132.877 696.27 134.956Q698.95 137.036 701.578 139.18Q704.206 141.325 706.78 143.533Q709.354 145.742 711.873 148.013Q714.393 150.285 716.855 152.617Q719.317 154.95 721.722 157.343Q724.126 159.736 726.47 162.187Q728.815 164.638 731.098 167.147Q733.381 169.655 735.602 172.219Q737.823 174.783 739.98 177.4Q742.137 180.018 744.229 182.688Q746.321 185.358 748.346 188.079Q750.372 190.8 752.329 193.57Q754.287 196.34 756.176 199.158Q758.065 201.975 759.884 204.838Q761.703 207.701 763.45 210.608Q765.198 213.515 766.874 216.464Q768.549 219.413 770.152 222.403Q771.754 225.393 773.282 228.421Q774.811 231.449 776.264 234.514Q777.717 237.579 779.094 240.679Q780.471 243.778 781.772 246.911Q783.072 250.044 784.295 253.208Q785.518 256.372 786.662 259.565Q787.807 262.758 788.872 265.978Q789.937 269.198 790.923 272.444C807.276 281.103 822.81 290.568 837.882 301.322C888.558 337.479 924.353 387.766 934.747 449.656C924.449 445.758 914.597 440.513 904.387 436.34Q899.26 434.229 894.046 432.345Q888.832 430.462 883.539 428.81Q878.247 427.157 872.887 425.739Q867.528 424.321 862.111 423.141Q856.694 421.96 851.23 421.019Q845.766 420.077 840.266 419.378Q834.767 418.678 829.241 418.22Q823.716 417.763 818.176 417.549C800.074 416.932 752.965 418.22 739.812 430.983C729.246 441.237 726.835 462.259 725.84 476.243C723.221 513.039 734.354 548.493 750.018 581.366C756.358 594.672 763.562 608.041 772.622 619.714C783.25 633.408 796.049 645.139 807.708 657.909Q815.04 666.028 821.875 674.57Q828.71 683.111 835.023 692.045Q841.337 700.979 847.107 710.274Q852.876 719.568 858.082 729.19C894.828 798.622 911.294 865.056 911.507 943.498L886.254 943.517C877.309 944.06 868.365 943.922 859.409 943.915C851.643 942.79 841.782 944.026 833.641 943.874Q749.15 944.746 664.658 943.931C655.758 944.462 646.182 944.333 637.296 943.622L539.856 943.942C524.805 943.984 509.996 944.611 494.914 944.009C486.211 946.098 469.086 944.392 459.665 943.952C451.444 944.717 443.016 944.429 434.76 944.461L396.711 944.59L269.61 944.569L167.172 944.548L136.382 944.589C129.438 944.596 122.351 944.855 115.441 944.12C106.134 942.411 95.3506 943.434 85.8727 943.45Z"/>
	<path fill="#E3C9C3" d="M482.927 195.992C483.796 197.178 481.327 200.728 480.593 202.011C473.417 214.561 468.865 228.441 468.436 243.014C456.86 247.313 443.671 249.518 431.628 252.229C431.092 251.443 431.127 251.805 431.292 250.906C431.971 247.216 436.124 242.548 438.372 239.599C451.43 222.466 465.5 208.592 482.927 195.992Z"/>
	<path fill="#E3C9C3" d="M813.463 705.79C823.919 718.925 832.765 734.493 840.464 749.367C865.637 798.001 881.755 850.685 885.66 905.444C886.556 918.012 887.06 930.928 886.254 943.517C877.309 944.06 868.365 943.922 859.409 943.915C857.68 942.737 858.708 938.951 858.881 937.041Q860.797 917.047 860.309 896.968Q860.124 887.724 859.554 878.495Q858.983 869.267 858.027 860.07Q857.071 850.874 855.732 841.725Q854.393 832.576 852.673 823.492Q850.953 814.407 848.854 805.402Q846.756 796.397 844.283 787.488Q841.81 778.578 838.968 769.78Q836.125 760.982 832.917 752.31C827.067 736.502 819.897 721.344 813.463 705.79Z"/>
	<path fill="#E3C9C3" d="M766.603 287.275C766.731 287.313 766.863 287.339 766.987 287.388C774.825 290.45 782.755 295.546 790.173 299.636C834.338 323.99 873.83 358.031 895.999 404.07C887.875 401.055 880.027 395.574 872.504 391.28Q860.636 384.512 848.001 379.313Q841.539 376.568 834.963 374.109Q828.386 371.651 821.708 369.484Q815.03 367.318 808.263 365.447Q801.496 363.576 794.654 362.005Q787.811 360.434 780.906 359.165Q774.001 357.896 767.046 356.932Q760.092 355.969 753.102 355.312Q746.112 354.655 739.1 354.306C732.038 353.988 722.913 353.056 716.273 355.977C714.628 356.701 712.954 357.831 712.514 359.696C712.245 360.833 712.478 362.076 713.222 362.989C715 365.168 718.701 365.461 721.306 365.832C729.387 367.511 741.522 367.929 750.324 369.147Q760.123 370.415 769.838 372.214Q779.553 374.013 789.155 376.339Q798.758 378.665 808.22 381.51Q817.681 384.356 826.974 387.712C832.223 389.648 837.686 391.447 842.628 394.088C837.032 393.791 831.454 392.997 825.853 392.671Q814.886 392.1 803.907 392.347Q792.927 392.595 781.997 393.661C769.454 394.978 756.109 398.893 743.876 399.094C729.96 399.322 715.612 393.45 705.675 383.761C696.294 374.613 690.334 361.685 690.25 348.517C690.165 335.155 695.243 323.896 704.473 314.427C707.095 314.512 709.724 314.604 712.348 314.583C735.769 314.396 750.905 303.381 766.603 287.275Z"/>
	<path fill="#E3C9C3" d="M549.082 173.193C568.368 171.345 587.785 177.531 603.4 188.796Q604.948 189.916 606.439 191.111Q607.93 192.306 609.36 193.572Q610.791 194.838 612.158 196.173Q613.525 197.507 614.825 198.907Q616.125 200.307 617.355 201.769Q618.585 203.231 619.742 204.752Q620.899 206.272 621.98 207.847Q623.061 209.423 624.064 211.049Q625.066 212.675 625.988 214.348Q626.91 216.022 627.749 217.738Q628.588 219.455 629.342 221.21Q630.096 222.966 630.763 224.756Q631.43 226.546 632.008 228.367Q632.587 230.188 633.076 232.035Q633.565 233.882 633.962 235.75Q634.36 237.619 634.666 239.505Q634.935 241.236 635.119 242.979Q635.302 244.721 635.4 246.47Q635.498 248.219 635.51 249.971Q635.522 251.723 635.448 253.474Q635.374 255.224 635.214 256.969Q635.054 258.714 634.808 260.448Q634.563 262.183 634.232 263.904Q633.902 265.624 633.488 267.326Q633.073 269.029 632.576 270.709Q632.079 272.388 631.499 274.042Q630.92 275.695 630.26 277.318Q629.601 278.941 628.862 280.53Q628.123 282.119 627.308 283.669Q626.492 285.22 625.601 286.728Q624.71 288.237 623.746 289.7Q622.782 291.163 621.748 292.577C608.948 310.142 590.731 319.456 569.617 322.853L568.731 322.968C548.72 325.408 527.948 318.904 512.253 306.401C496.442 293.807 486.088 275.746 483.972 255.605C481.863 235.525 487.889 214.348 500.713 198.701C512.562 184.245 530.591 175.098 549.082 173.193Z"/>
	<path fill="#262122" d="M557.106 193.666C570.502 192.587 583.389 196.052 594.301 203.987Q595.351 204.751 596.361 205.566Q597.372 206.381 598.341 207.245Q599.31 208.109 600.235 209.021Q601.16 209.932 602.038 210.888Q602.917 211.843 603.747 212.842Q604.577 213.84 605.357 214.878Q606.136 215.916 606.864 216.992Q607.591 218.067 608.264 219.178Q608.937 220.288 609.554 221.43Q610.171 222.573 610.731 223.744Q611.291 224.915 611.792 226.113Q612.293 227.311 612.734 228.532Q613.175 229.753 613.554 230.995Q613.934 232.236 614.252 233.495Q614.57 234.754 614.825 236.027Q615.08 237.3 615.272 238.584Q615.466 239.909 615.594 241.242Q615.722 242.574 615.785 243.912Q615.848 245.249 615.844 246.588Q615.841 247.927 615.772 249.264Q615.703 250.601 615.568 251.933Q615.434 253.265 615.233 254.589Q615.033 255.913 614.768 257.225Q614.503 258.538 614.174 259.835Q613.845 261.133 613.452 262.413Q613.059 263.693 612.604 264.952Q612.149 266.212 611.632 267.447Q611.116 268.682 610.539 269.89Q609.962 271.099 609.327 272.277Q608.692 273.456 607.999 274.601Q607.306 275.747 606.558 276.857Q605.81 277.968 605.008 279.04C595.907 291.308 583.095 298.261 568.124 300.448C553.706 301.018 541.786 298.779 529.873 290.175C518.443 281.92 510.42 269.783 508.175 255.786Q507.962 254.473 507.814 253.151Q507.666 251.829 507.582 250.501Q507.498 249.174 507.479 247.844Q507.46 246.514 507.506 245.184Q507.552 243.855 507.662 242.529Q507.773 241.203 507.948 239.885Q508.123 238.566 508.362 237.258Q508.601 235.949 508.903 234.654Q509.206 233.358 509.571 232.079Q509.936 230.8 510.363 229.54Q510.791 228.28 511.279 227.043Q511.766 225.805 512.314 224.593Q512.862 223.381 513.468 222.197Q514.074 221.013 514.737 219.859Q515.4 218.706 516.118 217.587Q516.837 216.467 517.609 215.384C527.325 202.036 541.264 196.233 557.106 193.666Z"/>
	<path fill="#F4D25E" d="M557.574 205.646C566.94 204.849 576.508 206.823 584.465 211.92Q585.336 212.486 586.177 213.093Q587.019 213.701 587.83 214.349Q588.641 214.998 589.419 215.685Q590.197 216.373 590.94 217.098Q591.683 217.823 592.39 218.583Q593.096 219.344 593.765 220.138Q594.433 220.933 595.062 221.759Q595.69 222.585 596.277 223.442Q596.864 224.298 597.408 225.182Q597.953 226.066 598.453 226.976Q598.953 227.886 599.408 228.819Q599.862 229.752 600.271 230.707Q600.679 231.662 601.04 232.635Q601.401 233.609 601.713 234.599Q602.026 235.589 602.289 236.593Q602.552 237.597 602.766 238.613Q602.975 239.581 603.136 240.559Q603.297 241.536 603.41 242.521Q603.523 243.505 603.588 244.493Q603.652 245.482 603.668 246.473Q603.683 247.463 603.65 248.453Q603.617 249.443 603.535 250.431Q603.454 251.418 603.323 252.4Q603.193 253.382 603.015 254.357Q602.836 255.331 602.61 256.296Q602.384 257.26 602.111 258.213Q601.837 259.165 601.517 260.102Q601.198 261.04 600.832 261.961Q600.466 262.882 600.056 263.783Q599.646 264.685 599.191 265.565Q598.737 266.446 598.24 267.303Q597.743 268.16 597.204 268.991C590.238 279.532 579.564 285.43 567.423 287.999C556.673 288.219 547.103 287.087 538.049 280.79Q537.195 280.208 536.372 279.583Q535.549 278.959 534.758 278.294Q533.967 277.629 533.211 276.925Q532.454 276.221 531.735 275.479Q531.015 274.738 530.333 273.962Q529.651 273.185 529.01 272.375Q528.368 271.565 527.768 270.724Q527.168 269.883 526.611 269.012Q526.054 268.142 525.542 267.245Q525.03 266.347 524.563 265.425Q524.096 264.503 523.677 263.559Q523.257 262.615 522.886 261.651Q522.515 260.686 522.192 259.705Q521.87 258.723 521.597 257.726Q521.325 256.729 521.103 255.72Q520.881 254.711 520.71 253.692C518.889 243.16 521.216 231.783 527.46 223.04C535.054 212.406 544.989 207.799 557.574 205.646Z"/>
	<path fill="#262122" d="M546.881 220.1C553.918 216.257 563.111 215.873 570.722 218.08C578.571 220.355 585.071 225.354 588.928 232.618C592.624 239.58 593.586 248.332 591.313 255.89Q591.097 256.603 590.846 257.305Q590.595 258.007 590.31 258.695Q590.024 259.383 589.704 260.056Q589.385 260.729 589.032 261.386Q588.679 262.042 588.294 262.68Q587.909 263.318 587.492 263.936Q587.076 264.554 586.629 265.15Q586.182 265.746 585.706 266.319Q585.23 266.893 584.726 267.441Q584.222 267.99 583.691 268.513Q583.16 269.036 582.604 269.532Q582.047 270.028 581.467 270.495Q580.887 270.963 580.284 271.4Q579.681 271.838 579.057 272.246Q578.433 272.653 577.789 273.028Q577.146 273.404 576.484 273.747C568.662 277.757 559.143 277.68 550.934 274.913Q550.288 274.696 549.653 274.447Q549.019 274.198 548.397 273.918Q547.775 273.638 547.168 273.328Q546.561 273.018 545.97 272.678Q545.379 272.339 544.805 271.97Q544.231 271.602 543.676 271.206Q543.121 270.81 542.586 270.388Q542.051 269.965 541.538 269.516Q541.024 269.068 540.534 268.594Q540.043 268.121 539.576 267.624Q539.109 267.128 538.667 266.609Q538.225 266.089 537.809 265.549Q537.393 265.009 537.005 264.449Q536.616 263.889 536.255 263.31Q535.894 262.732 535.562 262.137Q535.23 261.541 534.928 260.93C530.895 252.775 530.602 243.132 533.519 234.573C533.58 234.394 533.654 234.219 533.722 234.042C534.056 231.485 534.645 228.94 535.969 226.699C538.52 222.383 542.332 221.25 546.881 220.1Z"/>
	<path fill="#E3C9C3" d="M533.722 234.042C534.056 231.485 534.645 228.94 535.969 226.699C538.52 222.383 542.332 221.25 546.881 220.1C551.383 220.997 556.016 222.469 558.734 226.456C560.634 229.244 561.085 232.601 560.335 235.858C559.479 239.574 556.96 242.873 553.666 244.775C550.724 246.475 547.138 247.105 543.848 246.122C540.041 244.985 537.238 241.757 535.466 238.33C534.758 236.961 534.239 235.49 533.722 234.042Z"/>
	<path fill="#E3C9C3" d="M778.079 692.037C784.995 705.863 792.253 719.48 798.421 733.67Q800.462 738.352 802.394 743.079Q804.325 747.807 806.147 752.579Q807.968 757.35 809.678 762.162Q811.388 766.975 812.986 771.825Q814.584 776.676 816.069 781.563Q817.553 786.449 818.924 791.369Q820.295 796.289 821.551 801.239Q822.808 806.189 823.948 811.167Q825.089 816.146 826.114 821.149Q827.139 826.152 828.048 831.178Q828.956 836.203 829.748 841.249Q830.539 846.294 831.214 851.357Q831.888 856.419 832.444 861.496Q833.001 866.573 833.439 871.661Q833.877 876.75 834.197 881.847Q834.517 886.944 834.719 892.047C835.291 909.424 834.357 926.527 833.641 943.874Q749.15 944.746 664.658 943.931L665.033 943.45C668.977 938.482 673.576 933.905 677.756 929.12Q689.093 916.265 699.258 902.465Q702.361 898.24 705.354 893.937Q708.347 889.633 711.228 885.254Q714.109 880.875 716.876 876.423Q719.643 871.971 722.294 867.449Q724.946 862.927 727.48 858.338Q730.014 853.749 732.428 849.097Q734.843 844.444 737.137 839.731Q739.431 835.017 741.602 830.247Q743.774 825.476 745.822 820.65Q747.87 815.825 749.792 810.948Q751.715 806.072 753.512 801.147Q755.308 796.223 756.977 791.254Q758.645 786.284 760.186 781.274Q761.726 776.263 763.136 771.215Q764.546 766.166 765.826 761.083Q767.106 756 768.254 750.885C772.571 731.386 775.064 711.743 778.079 692.037Z"/>
	<path fill="#E3C9C3" d="M494.914 944.009C510.254 935.069 525.454 926.001 540.065 915.894C624.496 857.492 690.953 768.533 719.372 669.495C723.274 655.899 726.621 641.922 728.877 627.951C730.342 618.887 731.104 609.739 732.758 600.699C741.618 618.727 752.235 635.345 762.96 652.294Q763.006 656.509 762.964 660.724Q762.922 664.939 762.792 669.153Q762.663 673.366 762.446 677.576Q762.23 681.786 761.926 685.99Q761.622 690.194 761.231 694.392Q760.84 698.589 760.362 702.777Q759.884 706.965 759.32 711.142Q758.755 715.32 758.104 719.484Q757.453 723.649 756.715 727.8Q755.978 731.95 755.155 736.084Q754.331 740.218 753.423 744.334Q752.514 748.451 751.52 752.547Q750.526 756.644 749.447 760.719Q748.369 764.794 747.206 768.845Q746.043 772.897 744.796 776.924Q743.55 780.951 742.22 784.951Q740.89 788.951 739.477 792.922Q738.065 796.894 736.57 800.836Q735.076 804.777 733.5 808.687Q731.924 812.596 730.267 816.472Q728.611 820.349 726.874 824.19Q725.137 828.031 723.321 831.835Q721.505 835.639 719.611 839.405Q717.716 843.17 715.744 846.896Q713.772 850.621 711.723 854.305Q709.674 857.989 707.549 861.63Q705.425 865.27 703.225 868.866Q701.025 872.462 698.751 876.011Q696.477 879.561 694.13 883.062Q691.783 886.564 689.364 890.016Q686.945 893.468 684.454 896.869Q681.964 900.27 679.404 903.619C668.539 917.755 655.984 930.684 643.682 943.565L637.296 943.622L539.856 943.942C524.805 943.984 509.996 944.611 494.914 944.009Z"/>
	<path fill="#E3C9C3" d="M441.105 484.703C444.949 486.187 455.772 497.804 459.96 501.151C500.035 533.181 550.854 553.66 602.751 547.666C647.503 542.498 673.868 521.642 700.813 487.458C701.363 491.146 701.713 495.048 701.512 498.777C701.078 506.855 696.297 514.187 692.278 520.967C675.677 548.971 654.048 572.379 629.791 593.885C616.197 604.591 602.56 615.086 587.999 624.475C532.32 660.373 471.77 680.674 406.739 691.292C438.487 624.308 446.897 557.993 441.105 484.703Z"/>
	<path fill="#E3C9C3" d="M467.478 259.683C469.549 260.173 470.131 264.961 470.475 266.77C472.803 279.034 477.104 289.572 484.31 299.844C498.072 319.464 519.984 333.664 543.648 337.603C569.036 341.828 593.124 336.041 614.036 321.101C637.113 304.612 645.744 286.455 650.29 259.136C661.398 278.746 670.01 295.807 689.638 308.503Q687.927 310.366 686.399 312.381Q684.871 314.396 683.539 316.547Q682.207 318.697 681.083 320.963Q679.96 323.228 679.054 325.59C673.014 341.009 672.897 357.771 679.634 372.974C688.763 393.574 703.131 403.919 723.544 411.765C719.28 416.871 715.232 422.212 712.044 428.067C703.991 442.855 699.602 459.088 690.983 473.773C689.352 476.627 687.521 479.422 685.663 482.137C666.985 509.439 639.014 525.732 606.85 531.822C564.112 539.915 520.393 524.104 485.345 500.306C444.958 472.882 412.252 433.227 402.987 384.383C397.12 353.448 400.35 322.741 411.539 293.407C414.303 286.162 417.211 278.68 421.593 272.252C435.612 265.888 452.319 262.31 467.478 259.683Z"/>
	<path fill="#E3C9C3" d="M652.322 594.032C635.379 635.668 611.106 673.433 582.636 708.113Q579.996 711.37 577.307 714.586Q574.618 717.802 571.88 720.976Q569.142 724.15 566.356 727.282Q563.57 730.415 560.736 733.504Q557.902 736.593 555.021 739.638Q552.14 742.683 549.213 745.684Q546.286 748.685 543.313 751.64Q540.34 754.596 537.323 757.506Q534.305 760.415 531.243 763.278Q528.181 766.141 525.075 768.957Q521.97 771.773 518.822 774.541Q515.673 777.309 512.483 780.029Q509.293 782.748 506.061 785.419Q502.83 788.089 499.558 790.709Q496.286 793.33 492.974 795.9Q489.662 798.47 486.311 800.989Q482.961 803.508 479.572 805.975Q476.183 808.443 472.756 810.858Q469.33 813.273 465.867 815.635Q462.404 817.998 458.905 820.307Q455.406 822.616 451.873 824.871Q448.339 827.126 444.771 829.327Q441.203 831.528 437.602 833.674Q434.001 835.82 430.368 837.91Q426.734 840.001 423.069 842.036Q419.404 844.07 415.708 846.048Q412.012 848.027 408.286 849.948Q404.56 851.87 400.805 853.734Q397.051 855.598 393.268 857.404Q389.485 859.21 385.675 860.959Q381.865 862.707 378.028 864.397Q374.192 866.086 370.33 867.717Q361.381 871.567 352.305 875.105Q343.229 878.644 334.036 881.867Q324.843 885.09 315.544 887.994Q306.246 890.898 296.852 893.479Q287.459 896.06 277.982 898.316Q268.505 900.571 258.956 902.498Q249.407 904.425 239.797 906.022Q230.187 907.618 220.528 908.882C215.556 909.491 206.533 909.692 204.382 915.273C203.488 917.593 204.151 920.425 205.298 922.545C206.197 924.207 207.361 924.656 209.104 925.069C219.113 927.439 234.219 923.538 244.523 921.862Q251.725 920.634 258.894 919.224Q266.063 917.815 273.194 916.225Q280.324 914.635 287.413 912.865Q294.501 911.096 301.543 909.148Q308.585 907.2 315.575 905.075Q322.565 902.95 329.499 900.65Q336.434 898.349 343.308 895.874Q350.182 893.399 356.991 890.752Q363.801 888.104 370.541 885.285Q377.281 882.466 383.948 879.478Q390.616 876.49 397.205 873.335Q403.795 870.18 410.303 866.859Q416.81 863.539 423.232 860.055Q429.654 856.571 435.986 852.926Q442.318 849.281 448.556 845.478Q454.794 841.675 460.934 837.715Q466.24 834.315 471.469 830.797Q476.698 827.28 481.848 823.646Q486.997 820.013 492.065 816.266Q497.132 812.52 502.115 808.661Q507.097 804.802 511.993 800.834Q516.889 796.865 521.695 792.789Q526.501 788.712 531.215 784.53Q535.929 780.347 540.549 776.061Q545.169 771.774 549.692 767.386Q554.216 762.998 558.64 758.511Q563.065 754.023 567.389 749.438Q571.712 744.853 575.933 740.173Q580.153 735.493 584.269 730.72Q588.384 725.947 592.392 721.084Q596.4 716.22 600.299 711.269Q604.198 706.318 607.986 701.281C625.177 678.717 641.149 654.705 653.755 629.256Q663.318 610.316 670.749 590.442C673.285 583.478 674.736 575.855 677.92 569.166C680.947 562.806 686.642 557.197 690.718 551.401C695.722 544.283 699.976 536.481 705.618 529.846C707.207 535.97 708.831 542.06 710.84 548.062C713.421 555.774 716.974 563.584 717.771 571.743C718.781 582.077 717.047 593.268 715.968 603.562C710.023 660.323 690.585 713.752 661.714 762.801C623.775 827.255 568.096 881.643 504.483 920.588Q489.751 929.5 474.32 937.137C469.597 939.466 464.147 941.27 459.665 943.952C451.444 944.717 443.016 944.429 434.76 944.461L396.711 944.59L269.61 944.569L167.172 944.548L136.382 944.589C129.438 944.596 122.351 944.855 115.441 944.12Q123.096 932.371 130.096 920.219C133.659 913.963 137.001 907.409 140.923 901.379C160.421 896.696 179.743 891.361 198.465 884.111Q202.142 882.679 205.789 881.173Q209.437 879.667 213.053 878.086Q216.668 876.506 220.252 874.853Q223.835 873.2 227.383 871.474Q230.932 869.749 234.445 867.951Q237.958 866.154 241.434 864.285Q244.909 862.417 248.346 860.478Q251.783 858.54 255.18 856.532Q258.577 854.524 261.933 852.447Q265.288 850.37 268.601 848.226Q271.914 846.082 275.182 843.87Q278.45 841.659 281.673 839.382Q284.896 837.105 288.072 834.763Q291.247 832.421 294.375 830.014Q297.502 827.608 300.581 825.139Q303.659 822.67 306.686 820.138Q309.713 817.607 312.688 815.015Q315.664 812.423 318.586 809.771Q321.508 807.119 324.375 804.408Q327.242 801.697 330.054 798.928Q332.866 796.16 335.621 793.334Q338.376 790.509 341.073 787.629Q343.77 784.748 346.408 781.813Q349.046 778.879 351.624 775.891Q354.202 772.903 356.718 769.864Q359.235 766.824 361.689 763.734Q364.143 760.644 366.535 757.505Q368.926 754.366 371.252 751.179Q373.579 747.992 375.841 744.758Q378.102 741.524 380.298 738.245Q382.493 734.966 384.621 731.643Q386.75 728.321 388.81 724.955L399.299 707.635C492.228 697.583 583.783 657.875 652.322 594.032Z"/>
	<path fill="#E3C9C3" d="M523.373 103.719C560.225 101.644 598.166 109.407 631.77 124.438C678.058 145.144 718.991 182.319 744.566 226.096C752.441 239.576 758.484 253.493 764.03 268.061C753.002 280.662 740.449 292.937 724.125 298.182C684.181 311.017 669.458 262.736 657.992 234.525C653.673 223.899 649.05 213.525 642.904 203.802C632.713 187.68 619.223 175.216 602.26 166.479C576.048 152.979 545.397 152.463 517.691 161.456C468.625 177.381 431.746 214.365 408.58 259.703C384.916 269.054 363.131 281.109 344.944 299.184C305.835 338.055 288.622 393.288 288.487 447.501L304.492 447.502C305.093 423.923 308.018 401.985 314.852 379.331C328.955 332.58 357.805 302.005 400.084 279.275C396.561 289.159 392.84 299.061 390.18 309.219C378.577 353.522 383.687 400.559 406.916 440.259C408.099 442.206 408.992 444.199 409.654 446.382C413.153 457.908 413.843 471.331 415.238 483.319Q415.659 486.686 416.017 490.059Q416.375 493.433 416.67 496.813Q416.965 500.193 417.196 503.578Q417.427 506.963 417.595 510.352Q417.763 513.74 417.867 517.131Q417.972 520.523 418.013 523.915Q418.053 527.308 418.031 530.7Q418.008 534.093 417.922 537.485Q417.835 540.876 417.686 544.266Q417.536 547.655 417.323 551.041Q417.109 554.427 416.833 557.809Q416.556 561.19 416.216 564.566Q415.876 567.942 415.473 571.311Q415.07 574.679 414.603 578.04Q414.137 581.401 413.608 584.752Q413.079 588.103 412.487 591.444Q411.896 594.785 411.241 598.114Q410.587 601.443 409.871 604.759Q409.154 608.075 408.376 611.378Q407.597 614.68 406.757 617.967Q405.917 621.254 405.015 624.525Q404.113 627.796 403.151 631.049Q402.188 634.302 401.164 637.537Q400.141 640.772 399.057 643.987Q397.973 647.202 396.829 650.396Q395.685 653.59 394.481 656.762Q393.277 659.934 392.015 663.083Q390.752 666.232 389.43 669.357Q388.108 672.482 386.729 675.581Q385.349 678.681 383.911 681.754Q382.473 684.827 380.978 687.872Q379.483 690.918 377.931 693.935C343.937 758.578 286.689 813.534 221.203 845.728C200.978 855.671 180.402 862.879 158.938 869.533C161.578 860.844 166.63 852.428 170.54 844.216C176.094 832.553 181.349 820.615 186.275 808.675Q193.367 791.535 199.705 774.102Q206.044 756.669 211.617 738.976Q217.191 721.284 221.989 703.366Q226.786 685.447 230.799 667.337Q238.65 632.233 244.023 596.666Q249.395 561.098 252.264 525.242C255.585 485.247 256.419 445.055 260.758 405.139C269.121 328.204 293.126 249.034 344.627 189.645C391.315 135.804 452.967 108.696 523.373 103.719Z"/>
	<path fill="#262122" d="M378.771 504.048C381.48 503.918 384.254 503.882 386.838 504.82Q387.496 505.052 388.125 505.351Q388.755 505.651 389.35 506.014Q389.945 506.378 390.498 506.801Q391.052 507.225 391.558 507.705Q392.064 508.184 392.518 508.714Q392.971 509.244 393.366 509.818Q393.762 510.392 394.095 511.005Q394.428 511.617 394.695 512.261Q394.944 512.87 395.133 513.5Q395.322 514.13 395.448 514.775Q395.575 515.421 395.638 516.075Q395.701 516.73 395.701 517.388Q395.7 518.046 395.636 518.7Q395.571 519.355 395.443 520Q395.315 520.645 395.125 521.275Q394.935 521.905 394.685 522.513C392.866 526.885 389.524 529.088 385.361 530.86C383.378 531.072 381.221 531.11 379.274 530.64C375.578 529.749 372.388 527.458 370.516 524.13Q370.175 523.516 369.9 522.871Q369.625 522.225 369.418 521.554Q369.21 520.884 369.074 520.195Q368.937 519.507 368.873 518.808Q368.808 518.109 368.817 517.407Q368.825 516.705 368.906 516.008Q368.986 515.311 369.139 514.626Q369.291 513.941 369.514 513.275C371.123 508.548 374.514 506.151 378.771 504.048Z"/>
	<path fill="#262122" d="M374.168 550.483C377.073 550.424 380.265 550.132 383.138 550.543C385.194 550.837 387.587 551.785 388.674 553.684C391.383 558.42 386.918 585.546 385.844 591.995Q385.36 594.821 384.821 597.638Q384.282 600.455 383.689 603.26Q383.096 606.066 382.449 608.86Q381.801 611.653 381.1 614.434Q380.399 617.215 379.644 619.981Q378.889 622.748 378.081 625.499Q377.273 628.251 376.412 630.986Q375.551 633.721 374.637 636.439Q373.723 639.157 372.756 641.857Q371.79 644.557 370.772 647.238Q369.753 649.919 368.683 652.58Q367.613 655.24 366.492 657.88Q365.371 660.519 364.199 663.136Q363.027 665.753 361.804 668.347Q360.582 670.941 359.309 673.511Q358.037 676.081 356.715 678.626Q355.393 681.171 354.023 683.69Q352.652 686.209 351.232 688.701Q349.813 691.192 348.346 693.656Q346.879 696.12 345.364 698.555Q343.85 700.99 342.289 703.396Q340.727 705.801 339.12 708.176Q337.512 710.551 335.859 712.894Q334.206 715.237 332.508 717.548Q330.809 719.859 329.067 722.136Q327.324 724.414 325.538 726.657Q323.752 728.901 321.923 731.109Q320.093 733.318 318.222 735.49Q316.35 737.663 314.437 739.799Q312.523 741.935 310.569 744.034Q308.615 746.132 306.62 748.193Q304.626 750.253 302.592 752.275C289.407 765.246 275.134 776.442 260.11 787.162C258.477 788.245 256.531 789.384 254.517 789.333C252.562 789.283 250.411 787.789 249.191 786.362C247.739 784.664 246.852 782.448 247.169 780.195C248.207 772.834 262.335 766.851 267.811 762.509Q270.116 760.657 272.381 758.757Q274.646 756.857 276.871 754.91Q279.096 752.963 281.28 750.97Q283.463 748.977 285.605 746.939Q287.746 744.9 289.844 742.818Q291.943 740.735 293.997 738.609Q296.051 736.482 298.06 734.313Q300.069 732.145 302.033 729.934Q303.996 727.724 305.913 725.473Q307.829 723.222 309.698 720.931Q311.567 718.64 313.388 716.311Q315.209 713.981 316.98 711.614Q318.752 709.247 320.473 706.844Q322.195 704.44 323.866 702.001Q325.536 699.562 327.156 697.088Q328.775 694.615 330.342 692.108Q331.909 689.601 333.424 687.062Q334.938 684.523 336.399 681.952Q337.859 679.382 339.266 676.781Q340.673 674.181 342.025 671.552Q343.377 668.922 344.673 666.265Q345.97 663.608 347.21 660.925Q348.451 658.241 349.635 655.532Q350.819 652.823 351.946 650.09Q353.073 647.357 354.143 644.6Q355.212 641.844 356.224 639.066Q357.235 636.288 358.189 633.49Q359.142 630.691 360.036 627.873Q360.931 625.055 361.766 622.219Q362.601 619.383 363.377 616.53Q364.152 613.677 364.868 610.808Q365.584 607.94 366.239 605.057C370.362 586.878 372.045 568.936 374.168 550.483Z"/>
</svg>
